<?xml version="1.0" encoding="utf-8" standalone="no"?>
<!DOCTYPE svg PUBLIC "-//W3C//DTD SVG 1.1//EN"
  "http://www.w3.org/Graphics/SVG/1.1/DTD/svg11.dtd">
<svg xmlns:xlink="http://www.w3.org/1999/xlink" width="572.4pt" height="264.279304pt" viewBox="0 0 572.4 264.279304" xmlns="http://www.w3.org/2000/svg" version="1.1">
 <metadata>
  <rdf:RDF xmlns:dc="http://purl.org/dc/elements/1.1/" xmlns:cc="http://creativecommons.org/ns#" xmlns:rdf="http://www.w3.org/1999/02/22-rdf-syntax-ns#">
   <cc:Work>
    <dc:type rdf:resource="http://purl.org/dc/dcmitype/StillImage"/>
    <dc:date>2026-05-12T06:38:24.549519</dc:date>
    <dc:format>image/svg+xml</dc:format>
    <dc:creator>
     <cc:Agent>
      <dc:title>Matplotlib v3.10.8, https://matplotlib.org/</dc:title>
     </cc:Agent>
    </dc:creator>
   </cc:Work>
  </rdf:RDF>
 </metadata>
 <defs>
  <style type="text/css">*{stroke-linejoin: round; stroke-linecap: butt}</style>
 </defs>
 <g id="figure_1">
  <g id="patch_1">
   <path d="M 0 264.279304 
L 572.4 264.279304 
L 572.4 0 
L 0 0 
z
" style="fill: #ffffff"/>
  </g>
  <g id="axes_1">
   <g id="patch_2">
    <path d="M 7.2 248.59557 
L 565.2 248.59557 
L 565.2 7.2 
L 7.2 7.2 
z
" style="fill: #ffffff"/>
   </g>
   <g id="line2d_1">
    <path d="M 393.103068 212.120683 
L 334.409953 219.335501 
" clip-path="url(#p7dbd327e5b)" style="fill: none; stroke: #dce3ea; stroke-width: 16; stroke-linecap: round"/>
   </g>
   <g id="line2d_2">
    <path d="M 393.103068 212.120683 
L 473.922366 140.717334 
" clip-path="url(#p7dbd327e5b)" style="fill: none; stroke: #dce3ea; stroke-width: 16; stroke-linecap: round"/>
   </g>
   <g id="line2d_3">
    <path d="M 234.89216 219.242861 
L 176.643717 212.031749 
" clip-path="url(#p7dbd327e5b)" style="fill: none; stroke: #dce3ea; stroke-width: 16; stroke-linecap: round"/>
   </g>
   <g id="line2d_4">
    <path d="M 234.89216 219.242861 
L 334.409953 219.335501 
" clip-path="url(#p7dbd327e5b)" style="fill: none; stroke: #dce3ea; stroke-width: 16; stroke-linecap: round"/>
   </g>
   <g id="line2d_5">
    <path d="M 234.89216 219.242861 
L 154.747282 161.535436 
" clip-path="url(#p7dbd327e5b)" style="fill: none; stroke: #dce3ea; stroke-width: 16; stroke-linecap: round"/>
   </g>
   <g id="line2d_6">
    <path d="M 416.852306 160.542334 
L 334.409953 219.335501 
" clip-path="url(#p7dbd327e5b)" style="fill: none; stroke: #dce3ea; stroke-width: 16; stroke-linecap: round"/>
   </g>
   <g id="line2d_7">
    <path d="M 416.852306 160.542334 
L 473.922366 140.717334 
" clip-path="url(#p7dbd327e5b)" style="fill: none; stroke: #dce3ea; stroke-width: 16; stroke-linecap: round"/>
   </g>
   <g id="line2d_8">
    <path d="M 416.852306 160.542334 
L 332.438569 172.444745 
" clip-path="url(#p7dbd327e5b)" style="fill: none; stroke: #dce3ea; stroke-width: 16; stroke-linecap: round"/>
   </g>
   <g id="line2d_9">
    <path d="M 416.852306 160.542334 
L 458.740493 55.725522 
" clip-path="url(#p7dbd327e5b)" style="fill: none; stroke: #dce3ea; stroke-width: 16; stroke-linecap: round"/>
   </g>
   <g id="line2d_10">
    <path d="M 238.523655 172.733782 
L 332.438569 172.444745 
" clip-path="url(#p7dbd327e5b)" style="fill: none; stroke: #dce3ea; stroke-width: 16; stroke-linecap: round"/>
   </g>
   <g id="line2d_11">
    <path d="M 238.523655 172.733782 
L 154.747282 161.535436 
" clip-path="url(#p7dbd327e5b)" style="fill: none; stroke: #dce3ea; stroke-width: 16; stroke-linecap: round"/>
   </g>
   <g id="line2d_12">
    <path d="M 238.523655 172.733782 
L 223.401071 69.091648 
" clip-path="url(#p7dbd327e5b)" style="fill: none; stroke: #dce3ea; stroke-width: 16; stroke-linecap: round"/>
   </g>
   <g id="line2d_13">
    <path d="M 97.610522 142.262572 
L 176.643717 212.031749 
" clip-path="url(#p7dbd327e5b)" style="fill: none; stroke: #dce3ea; stroke-width: 16; stroke-linecap: round"/>
   </g>
   <g id="line2d_14">
    <path d="M 97.610522 142.262572 
L 154.747282 161.535436 
" clip-path="url(#p7dbd327e5b)" style="fill: none; stroke: #dce3ea; stroke-width: 16; stroke-linecap: round"/>
   </g>
   <g id="line2d_15">
    <path d="M 97.610522 142.262572 
L 41.463158 40.217555 
" clip-path="url(#p7dbd327e5b)" style="fill: none; stroke: #dce3ea; stroke-width: 16; stroke-linecap: round"/>
   </g>
   <g id="line2d_16">
    <path d="M 530.936842 36.460069 
L 473.922366 140.717334 
" clip-path="url(#p7dbd327e5b)" style="fill: none; stroke: #dce3ea; stroke-width: 16; stroke-linecap: round"/>
   </g>
   <g id="line2d_17">
    <path d="M 530.936842 36.460069 
L 458.740493 55.725522 
" clip-path="url(#p7dbd327e5b)" style="fill: none; stroke: #dce3ea; stroke-width: 16; stroke-linecap: round"/>
   </g>
   <g id="line2d_18">
    <path d="M 349.161976 68.146718 
L 332.438569 172.444745 
" clip-path="url(#p7dbd327e5b)" style="fill: none; stroke: #dce3ea; stroke-width: 16; stroke-linecap: round"/>
   </g>
   <g id="line2d_19">
    <path d="M 349.161976 68.146718 
L 458.740493 55.725522 
" clip-path="url(#p7dbd327e5b)" style="fill: none; stroke: #dce3ea; stroke-width: 16; stroke-linecap: round"/>
   </g>
   <g id="line2d_20">
    <path d="M 349.161976 68.146718 
L 223.401071 69.091648 
" clip-path="url(#p7dbd327e5b)" style="fill: none; stroke: #dce3ea; stroke-width: 16; stroke-linecap: round"/>
   </g>
   <g id="line2d_21">
    <path d="M 114.207937 58.326858 
L 154.747282 161.535436 
" clip-path="url(#p7dbd327e5b)" style="fill: none; stroke: #dce3ea; stroke-width: 16; stroke-linecap: round"/>
   </g>
   <g id="line2d_22">
    <path d="M 114.207937 58.326858 
L 223.401071 69.091648 
" clip-path="url(#p7dbd327e5b)" style="fill: none; stroke: #dce3ea; stroke-width: 16; stroke-linecap: round"/>
   </g>
   <g id="line2d_23">
    <path d="M 114.207937 58.326858 
L 41.463158 40.217555 
" clip-path="url(#p7dbd327e5b)" style="fill: none; stroke: #dce3ea; stroke-width: 16; stroke-linecap: round"/>
   </g>
   <g id="matplotlib.axis_1"/>
   <g id="matplotlib.axis_2"/>
   <g id="text_1">
    <!-- 1 -->
    <g style="fill: #1a3a6e" transform="translate(359.929714 218.763405) scale(0.11 -0.11)">
     <defs>
      <path id="DejaVuSans-Bold-31" d="M 750 831 
L 1813 831 
L 1813 3847 
L 722 3622 
L 722 4441 
L 1806 4666 
L 2950 4666 
L 2950 831 
L 4013 831 
L 4013 0 
L 750 0 
L 750 831 
z
" transform="scale(0.015625)"/>
     </defs>
     <use xlink:href="#DejaVuSans-Bold-31"/>
    </g>
   </g>
   <g id="text_2">
    <!-- 2 -->
    <g style="fill: #1a3a6e" transform="translate(429.685921 179.454321) scale(0.11 -0.11)">
     <defs>
      <path id="DejaVuSans-Bold-32" d="M 1844 884 
L 3897 884 
L 3897 0 
L 506 0 
L 506 884 
L 2209 2388 
Q 2438 2594 2547 2791 
Q 2656 2988 2656 3200 
Q 2656 3528 2436 3728 
Q 2216 3928 1850 3928 
Q 1569 3928 1234 3808 
Q 900 3688 519 3450 
L 519 4475 
Q 925 4609 1322 4679 
Q 1719 4750 2100 4750 
Q 2938 4750 3402 4381 
Q 3866 4013 3866 3353 
Q 3866 2972 3669 2642 
Q 3472 2313 2841 1759 
L 1844 884 
z
" transform="scale(0.015625)"/>
     </defs>
     <use xlink:href="#DejaVuSans-Bold-32"/>
    </g>
   </g>
   <g id="text_3">
    <!-- 3 -->
    <g style="fill: #1a3a6e" transform="translate(201.941141 218.672617) scale(0.11 -0.11)">
     <defs>
      <path id="DejaVuSans-Bold-33" d="M 2981 2516 
Q 3453 2394 3698 2092 
Q 3944 1791 3944 1325 
Q 3944 631 3412 270 
Q 2881 -91 1863 -91 
Q 1503 -91 1142 -33 
Q 781 25 428 141 
L 428 1069 
Q 766 900 1098 814 
Q 1431 728 1753 728 
Q 2231 728 2486 893 
Q 2741 1059 2741 1369 
Q 2741 1688 2480 1852 
Q 2219 2016 1709 2016 
L 1228 2016 
L 1228 2791 
L 1734 2791 
Q 2188 2791 2409 2933 
Q 2631 3075 2631 3366 
Q 2631 3634 2415 3781 
Q 2200 3928 1806 3928 
Q 1516 3928 1219 3862 
Q 922 3797 628 3669 
L 628 4550 
Q 984 4650 1334 4700 
Q 1684 4750 2022 4750 
Q 2931 4750 3382 4451 
Q 3834 4153 3834 3553 
Q 3834 3144 3618 2883 
Q 3403 2622 2981 2516 
z
" transform="scale(0.015625)"/>
     </defs>
     <use xlink:href="#DejaVuSans-Bold-33"/>
    </g>
   </g>
   <g id="text_4">
    <!-- 4 -->
    <g style="fill: #1a3a6e" transform="translate(280.824259 222.324493) scale(0.11 -0.11)">
     <defs>
      <path id="DejaVuSans-Bold-34" d="M 2356 3675 
L 1038 1722 
L 2356 1722 
L 2356 3675 
z
M 2156 4666 
L 3494 4666 
L 3494 1722 
L 4159 1722 
L 4159 850 
L 3494 850 
L 3494 0 
L 2356 0 
L 2356 850 
L 288 850 
L 288 1881 
L 2156 4666 
z
" transform="scale(0.015625)"/>
     </defs>
     <use xlink:href="#DejaVuSans-Bold-34"/>
    </g>
   </g>
   <g id="text_5">
    <!-- 5 -->
    <g style="fill: #1a3a6e" transform="translate(190.992924 193.424461) scale(0.11 -0.11)">
     <defs>
      <path id="DejaVuSans-Bold-35" d="M 678 4666 
L 3669 4666 
L 3669 3781 
L 1638 3781 
L 1638 3059 
Q 1775 3097 1914 3117 
Q 2053 3138 2203 3138 
Q 3056 3138 3531 2711 
Q 4006 2284 4006 1522 
Q 4006 766 3489 337 
Q 2972 -91 2053 -91 
Q 1656 -91 1267 -14 
Q 878 63 494 219 
L 494 1166 
Q 875 947 1217 837 
Q 1559 728 1863 728 
Q 2300 728 2551 942 
Q 2803 1156 2803 1522 
Q 2803 1891 2551 2103 
Q 2300 2316 1863 2316 
Q 1603 2316 1309 2248 
Q 1016 2181 678 2041 
L 678 4666 
z
" transform="scale(0.015625)"/>
     </defs>
     <use xlink:href="#DejaVuSans-Bold-35"/>
    </g>
   </g>
   <g id="text_6">
    <!-- 6 -->
    <g style="fill: #1a3a6e" transform="translate(371.804333 192.97423) scale(0.11 -0.11)">
     <defs>
      <path id="DejaVuSans-Bold-36" d="M 2316 2303 
Q 2000 2303 1842 2098 
Q 1684 1894 1684 1484 
Q 1684 1075 1842 870 
Q 2000 666 2316 666 
Q 2634 666 2792 870 
Q 2950 1075 2950 1484 
Q 2950 1894 2792 2098 
Q 2634 2303 2316 2303 
z
M 3803 4544 
L 3803 3681 
Q 3506 3822 3243 3889 
Q 2981 3956 2731 3956 
Q 2194 3956 1894 3657 
Q 1594 3359 1544 2772 
Q 1750 2925 1990 3001 
Q 2231 3078 2516 3078 
Q 3231 3078 3670 2659 
Q 4109 2241 4109 1563 
Q 4109 813 3618 361 
Q 3128 -91 2303 -91 
Q 1394 -91 895 523 
Q 397 1138 397 2266 
Q 397 3422 980 4083 
Q 1563 4744 2578 4744 
Q 2900 4744 3203 4694 
Q 3506 4644 3803 4544 
z
" transform="scale(0.015625)"/>
     </defs>
     <use xlink:href="#DejaVuSans-Bold-36"/>
    </g>
   </g>
   <g id="text_7">
    <!-- 7 -->
    <g style="fill: #1a3a6e" transform="translate(441.56054 153.665146) scale(0.11 -0.11)">
     <defs>
      <path id="DejaVuSans-Bold-37" d="M 428 4666 
L 3944 4666 
L 3944 3988 
L 2125 0 
L 953 0 
L 2675 3781 
L 428 3781 
L 428 4666 
z
" transform="scale(0.015625)"/>
     </defs>
     <use xlink:href="#DejaVuSans-Bold-37"/>
    </g>
   </g>
   <g id="text_8">
    <!-- 8 -->
    <g style="fill: #1a3a6e" transform="translate(370.818641 169.528852) scale(0.11 -0.11)">
     <defs>
      <path id="DejaVuSans-Bold-38" d="M 2228 2088 
Q 1891 2088 1709 1903 
Q 1528 1719 1528 1375 
Q 1528 1031 1709 848 
Q 1891 666 2228 666 
Q 2563 666 2741 848 
Q 2919 1031 2919 1375 
Q 2919 1722 2741 1905 
Q 2563 2088 2228 2088 
z
M 1350 2484 
Q 925 2613 709 2878 
Q 494 3144 494 3541 
Q 494 4131 934 4440 
Q 1375 4750 2228 4750 
Q 3075 4750 3515 4442 
Q 3956 4134 3956 3541 
Q 3956 3144 3739 2878 
Q 3522 2613 3097 2484 
Q 3572 2353 3814 2058 
Q 4056 1763 4056 1313 
Q 4056 619 3595 264 
Q 3134 -91 2228 -91 
Q 1319 -91 855 264 
Q 391 619 391 1313 
Q 391 1763 633 2058 
Q 875 2353 1350 2484 
z
M 1631 3419 
Q 1631 3141 1786 2991 
Q 1941 2841 2228 2841 
Q 2509 2841 2662 2991 
Q 2816 3141 2816 3419 
Q 2816 3697 2662 3845 
Q 2509 3994 2228 3994 
Q 1941 3994 1786 3844 
Q 1631 3694 1631 3419 
z
" transform="scale(0.015625)"/>
     </defs>
     <use xlink:href="#DejaVuSans-Bold-38"/>
    </g>
   </g>
   <g id="text_9">
    <!-- 9 -->
    <g style="fill: #1a3a6e" transform="translate(433.969603 111.16924) scale(0.11 -0.11)">
     <defs>
      <path id="DejaVuSans-Bold-39" d="M 641 103 
L 641 966 
Q 928 831 1190 764 
Q 1453 697 1709 697 
Q 2247 697 2547 995 
Q 2847 1294 2900 1881 
Q 2688 1725 2447 1647 
Q 2206 1569 1925 1569 
Q 1209 1569 770 1986 
Q 331 2403 331 3084 
Q 331 3838 820 4291 
Q 1309 4744 2131 4744 
Q 3044 4744 3544 4128 
Q 4044 3513 4044 2388 
Q 4044 1231 3459 570 
Q 2875 -91 1856 -91 
Q 1528 -91 1228 -42 
Q 928 6 641 103 
z
M 2125 2350 
Q 2441 2350 2600 2554 
Q 2759 2759 2759 3169 
Q 2759 3575 2600 3781 
Q 2441 3988 2125 3988 
Q 1809 3988 1650 3781 
Q 1491 3575 1491 3169 
Q 1491 2759 1650 2554 
Q 1809 2350 2125 2350 
z
" transform="scale(0.015625)"/>
     </defs>
     <use xlink:href="#DejaVuSans-Bold-39"/>
    </g>
   </g>
   <g id="text_10">
    <!-- 10 -->
    <g style="fill: #1a3a6e" transform="translate(277.827518 175.624576) scale(0.11 -0.11)">
     <defs>
      <path id="DejaVuSans-Bold-30" d="M 2944 2338 
Q 2944 3213 2780 3570 
Q 2616 3928 2228 3928 
Q 1841 3928 1675 3570 
Q 1509 3213 1509 2338 
Q 1509 1453 1675 1090 
Q 1841 728 2228 728 
Q 2613 728 2778 1090 
Q 2944 1453 2944 2338 
z
M 4147 2328 
Q 4147 1169 3647 539 
Q 3147 -91 2228 -91 
Q 1306 -91 806 539 
Q 306 1169 306 2328 
Q 306 3491 806 4120 
Q 1306 4750 2228 4750 
Q 3147 4750 3647 4120 
Q 4147 3491 4147 2328 
z
" transform="scale(0.015625)"/>
     </defs>
     <use xlink:href="#DejaVuSans-Bold-31"/>
     <use xlink:href="#DejaVuSans-Bold-30" transform="translate(69.580078 0)"/>
    </g>
   </g>
   <g id="text_11">
    <!-- 11 -->
    <g style="fill: #1a3a6e" transform="translate(188.981875 170.169922) scale(0.11 -0.11)">
     <use xlink:href="#DejaVuSans-Bold-31"/>
     <use xlink:href="#DejaVuSans-Bold-31" transform="translate(69.580078 0)"/>
    </g>
   </g>
   <g id="text_12">
    <!-- 12 -->
    <g style="fill: #1a3a6e" transform="translate(223.308769 123.948028) scale(0.11 -0.11)">
     <use xlink:href="#DejaVuSans-Bold-31"/>
     <use xlink:href="#DejaVuSans-Bold-32" transform="translate(69.580078 0)"/>
    </g>
   </g>
   <g id="text_13">
    <!-- 13 -->
    <g style="fill: #1a3a6e" transform="translate(129.473525 180.182473) scale(0.11 -0.11)">
     <use xlink:href="#DejaVuSans-Bold-31"/>
     <use xlink:href="#DejaVuSans-Bold-33" transform="translate(69.580078 0)"/>
    </g>
   </g>
   <g id="text_14">
    <!-- 14 -->
    <g style="fill: #1a3a6e" transform="translate(118.525308 154.934317) scale(0.11 -0.11)">
     <use xlink:href="#DejaVuSans-Bold-31"/>
     <use xlink:href="#DejaVuSans-Bold-34" transform="translate(69.580078 0)"/>
    </g>
   </g>
   <g id="text_15">
    <!-- 15 -->
    <g style="fill: #1a3a6e" transform="translate(61.883246 94.275376) scale(0.11 -0.11)">
     <use xlink:href="#DejaVuSans-Bold-31"/>
     <use xlink:href="#DejaVuSans-Bold-35" transform="translate(69.580078 0)"/>
    </g>
   </g>
   <g id="text_16">
    <!-- 16 -->
    <g style="fill: #1a3a6e" transform="translate(494.77601 91.624014) scale(0.11 -0.11)">
     <use xlink:href="#DejaVuSans-Bold-31"/>
     <use xlink:href="#DejaVuSans-Bold-36" transform="translate(69.580078 0)"/>
    </g>
   </g>
   <g id="text_17">
    <!-- 17 -->
    <g style="fill: #1a3a6e" transform="translate(487.185074 49.128108) scale(0.11 -0.11)">
     <use xlink:href="#DejaVuSans-Bold-31"/>
     <use xlink:href="#DejaVuSans-Bold-37" transform="translate(69.580078 0)"/>
    </g>
   </g>
   <g id="text_18">
    <!-- 18 -->
    <g style="fill: #1a3a6e" transform="translate(333.146679 123.331044) scale(0.11 -0.11)">
     <use xlink:href="#DejaVuSans-Bold-31"/>
     <use xlink:href="#DejaVuSans-Bold-38" transform="translate(69.580078 0)"/>
    </g>
   </g>
   <g id="text_19">
    <!-- 19 -->
    <g style="fill: #1a3a6e" transform="translate(396.29764 64.971433) scale(0.11 -0.11)">
     <use xlink:href="#DejaVuSans-Bold-31"/>
     <use xlink:href="#DejaVuSans-Bold-39" transform="translate(69.580078 0)"/>
    </g>
   </g>
   <g id="text_20">
    <!-- 20 -->
    <g style="fill: #1a3a6e" transform="translate(278.62793 71.654496) scale(0.11 -0.11)">
     <use xlink:href="#DejaVuSans-Bold-32"/>
     <use xlink:href="#DejaVuSans-Bold-30" transform="translate(69.580078 0)"/>
    </g>
   </g>
   <g id="text_21">
    <!-- 21 -->
    <g style="fill: #1a3a6e" transform="translate(126.824016 112.96646) scale(0.11 -0.11)">
     <use xlink:href="#DejaVuSans-Bold-32"/>
     <use xlink:href="#DejaVuSans-Bold-31" transform="translate(69.580078 0)"/>
    </g>
   </g>
   <g id="text_22">
    <!-- 22 -->
    <g style="fill: #1a3a6e" transform="translate(161.15091 66.744566) scale(0.11 -0.11)">
     <use xlink:href="#DejaVuSans-Bold-32"/>
     <use xlink:href="#DejaVuSans-Bold-32" transform="translate(69.580078 0)"/>
    </g>
   </g>
   <g id="text_23">
    <!-- 23 -->
    <g style="fill: #1a3a6e" transform="translate(70.181954 52.307519) scale(0.11 -0.11)">
     <use xlink:href="#DejaVuSans-Bold-32"/>
     <use xlink:href="#DejaVuSans-Bold-33" transform="translate(69.580078 0)"/>
    </g>
   </g>
   <g id="line2d_24">
    <defs>
     <path id="m492555d036" d="M 0 5.5 
C 1.458617 5.5 2.857689 4.920485 3.889087 3.889087 
C 4.920485 2.857689 5.5 1.458617 5.5 0 
C 5.5 -1.458617 4.920485 -2.857689 3.889087 -3.889087 
C 2.857689 -4.920485 1.458617 -5.5 0 -5.5 
C -1.458617 -5.5 -2.857689 -4.920485 -3.889087 -3.889087 
C -4.920485 -2.857689 -5.5 -1.458617 -5.5 0 
C -5.5 1.458617 -4.920485 2.857689 -3.889087 3.889087 
C -2.857689 4.920485 -1.458617 5.5 0 5.5 
z
"/>
    </defs>
    <g clip-path="url(#p7dbd327e5b)">
     <use xlink:href="#m492555d036" x="393.103068" y="212.120683" style="fill: #ff0000"/>
    </g>
   </g>
   <g id="line2d_25">
    <defs>
     <path id="md49e89ca09" d="M 0 5.5 
C 1.458617 5.5 2.857689 4.920485 3.889087 3.889087 
C 4.920485 2.857689 5.5 1.458617 5.5 0 
C 5.5 -1.458617 4.920485 -2.857689 3.889087 -3.889087 
C 2.857689 -4.920485 1.458617 -5.5 0 -5.5 
C -1.458617 -5.5 -2.857689 -4.920485 -3.889087 -3.889087 
C -4.920485 -2.857689 -5.5 -1.458617 -5.5 0 
C -5.5 1.458617 -4.920485 2.857689 -3.889087 3.889087 
C -2.857689 4.920485 -1.458617 5.5 0 5.5 
z
"/>
    </defs>
    <g clip-path="url(#p7dbd327e5b)">
     <use xlink:href="#md49e89ca09" x="176.643717" y="212.031749" style="fill: #0000ff"/>
    </g>
   </g>
   <g id="line2d_26">
    <g clip-path="url(#p7dbd327e5b)">
     <use xlink:href="#m492555d036" x="234.89216" y="219.242861" style="fill: #ff0000"/>
    </g>
   </g>
   <g id="line2d_27">
    <g clip-path="url(#p7dbd327e5b)">
     <use xlink:href="#m492555d036" x="416.852306" y="160.542334" style="fill: #ff0000"/>
    </g>
   </g>
   <g id="line2d_28">
    <g clip-path="url(#p7dbd327e5b)">
     <use xlink:href="#m492555d036" x="238.523655" y="172.733782" style="fill: #ff0000"/>
    </g>
   </g>
   <g id="line2d_29">
    <g clip-path="url(#p7dbd327e5b)">
     <use xlink:href="#m492555d036" x="97.610522" y="142.262572" style="fill: #ff0000"/>
    </g>
   </g>
   <g id="line2d_30">
    <g clip-path="url(#p7dbd327e5b)">
     <use xlink:href="#m492555d036" x="530.936842" y="36.460069" style="fill: #ff0000"/>
    </g>
   </g>
   <g id="line2d_31">
    <g clip-path="url(#p7dbd327e5b)">
     <use xlink:href="#m492555d036" x="349.161976" y="68.146718" style="fill: #ff0000"/>
    </g>
   </g>
   <g id="line2d_32">
    <g clip-path="url(#p7dbd327e5b)">
     <use xlink:href="#m492555d036" x="114.207937" y="58.326858" style="fill: #ff0000"/>
    </g>
   </g>
   <g id="line2d_33">
    <g clip-path="url(#p7dbd327e5b)">
     <use xlink:href="#md49e89ca09" x="334.409953" y="219.335501" style="fill: #0000ff"/>
    </g>
   </g>
   <g id="line2d_34">
    <g clip-path="url(#p7dbd327e5b)">
     <use xlink:href="#md49e89ca09" x="473.922366" y="140.717334" style="fill: #0000ff"/>
    </g>
   </g>
   <g id="line2d_35">
    <g clip-path="url(#p7dbd327e5b)">
     <use xlink:href="#md49e89ca09" x="332.438569" y="172.444745" style="fill: #0000ff"/>
    </g>
   </g>
   <g id="line2d_36">
    <g clip-path="url(#p7dbd327e5b)">
     <use xlink:href="#md49e89ca09" x="154.747282" y="161.535436" style="fill: #0000ff"/>
    </g>
   </g>
   <g id="line2d_37">
    <g clip-path="url(#p7dbd327e5b)">
     <use xlink:href="#md49e89ca09" x="458.740493" y="55.725522" style="fill: #0000ff"/>
    </g>
   </g>
   <g id="line2d_38">
    <g clip-path="url(#p7dbd327e5b)">
     <use xlink:href="#md49e89ca09" x="223.401071" y="69.091648" style="fill: #0000ff"/>
    </g>
   </g>
   <g id="line2d_39">
    <g clip-path="url(#p7dbd327e5b)">
     <use xlink:href="#md49e89ca09" x="41.463158" y="40.217555" style="fill: #0000ff"/>
    </g>
   </g>
   <g id="text_24">
    <!-- S1 -->
    <g style="fill: #ff0000" transform="translate(385.315412 230.537113) scale(0.11 -0.11)">
     <defs>
      <path id="DejaVuSans-Bold-53" d="M 3834 4519 
L 3834 3531 
Q 3450 3703 3084 3790 
Q 2719 3878 2394 3878 
Q 1963 3878 1756 3759 
Q 1550 3641 1550 3391 
Q 1550 3203 1689 3098 
Q 1828 2994 2194 2919 
L 2706 2816 
Q 3484 2659 3812 2340 
Q 4141 2022 4141 1434 
Q 4141 663 3683 286 
Q 3225 -91 2284 -91 
Q 1841 -91 1394 -6 
Q 947 78 500 244 
L 500 1259 
Q 947 1022 1364 901 
Q 1781 781 2169 781 
Q 2563 781 2772 912 
Q 2981 1044 2981 1288 
Q 2981 1506 2839 1625 
Q 2697 1744 2272 1838 
L 1806 1941 
Q 1106 2091 782 2419 
Q 459 2747 459 3303 
Q 459 4000 909 4375 
Q 1359 4750 2203 4750 
Q 2588 4750 2994 4692 
Q 3400 4634 3834 4519 
z
" transform="scale(0.015625)"/>
     </defs>
     <use xlink:href="#DejaVuSans-Bold-53"/>
     <use xlink:href="#DejaVuSans-Bold-31" transform="translate(72.021484 0)"/>
    </g>
   </g>
   <g id="text_25">
    <!-- D2 -->
    <g style="fill: #0000ff" transform="translate(168.25106 230.448179) scale(0.11 -0.11)">
     <defs>
      <path id="DejaVuSans-Bold-44" d="M 1791 3756 
L 1791 909 
L 2222 909 
Q 2959 909 3348 1275 
Q 3738 1641 3738 2338 
Q 3738 3031 3350 3393 
Q 2963 3756 2222 3756 
L 1791 3756 
z
M 588 4666 
L 1856 4666 
Q 2919 4666 3439 4514 
Q 3959 4363 4331 4000 
Q 4659 3684 4818 3271 
Q 4978 2859 4978 2338 
Q 4978 1809 4818 1395 
Q 4659 981 4331 666 
Q 3956 303 3431 151 
Q 2906 0 1856 0 
L 588 0 
L 588 4666 
z
" transform="scale(0.015625)"/>
     </defs>
     <use xlink:href="#DejaVuSans-Bold-44"/>
     <use xlink:href="#DejaVuSans-Bold-32" transform="translate(83.007812 0)"/>
    </g>
   </g>
   <g id="text_26">
    <!-- S2 -->
    <g style="fill: #ff0000" transform="translate(227.104503 237.659291) scale(0.11 -0.11)">
     <use xlink:href="#DejaVuSans-Bold-53"/>
     <use xlink:href="#DejaVuSans-Bold-32" transform="translate(72.021484 0)"/>
    </g>
   </g>
   <g id="text_27">
    <!-- S3 -->
    <g style="fill: #ff0000" transform="translate(409.06465 148.196529) scale(0.11 -0.11)">
     <use xlink:href="#DejaVuSans-Bold-53"/>
     <use xlink:href="#DejaVuSans-Bold-33" transform="translate(72.021484 0)"/>
    </g>
   </g>
   <g id="text_28">
    <!-- S4 -->
    <g style="fill: #ff0000" transform="translate(230.735999 160.387977) scale(0.11 -0.11)">
     <use xlink:href="#DejaVuSans-Bold-53"/>
     <use xlink:href="#DejaVuSans-Bold-34" transform="translate(72.021484 0)"/>
    </g>
   </g>
   <g id="text_29">
    <!-- S5 -->
    <g style="fill: #ff0000" transform="translate(89.822865 129.916767) scale(0.11 -0.11)">
     <use xlink:href="#DejaVuSans-Bold-53"/>
     <use xlink:href="#DejaVuSans-Bold-35" transform="translate(72.021484 0)"/>
    </g>
   </g>
   <g id="text_30">
    <!-- S6 -->
    <g style="fill: #ff0000" transform="translate(523.149186 24.114264) scale(0.11 -0.11)">
     <use xlink:href="#DejaVuSans-Bold-53"/>
     <use xlink:href="#DejaVuSans-Bold-36" transform="translate(72.021484 0)"/>
    </g>
   </g>
   <g id="text_31">
    <!-- S7 -->
    <g style="fill: #ff0000" transform="translate(341.374319 55.800913) scale(0.11 -0.11)">
     <use xlink:href="#DejaVuSans-Bold-53"/>
     <use xlink:href="#DejaVuSans-Bold-37" transform="translate(72.021484 0)"/>
    </g>
   </g>
   <g id="text_32">
    <!-- S8 -->
    <g style="fill: #ff0000" transform="translate(106.420281 45.981053) scale(0.11 -0.11)">
     <use xlink:href="#DejaVuSans-Bold-53"/>
     <use xlink:href="#DejaVuSans-Bold-38" transform="translate(72.021484 0)"/>
    </g>
   </g>
   <g id="text_33">
    <!-- D1 -->
    <g style="fill: #0000ff" transform="translate(326.017296 237.751931) scale(0.11 -0.11)">
     <use xlink:href="#DejaVuSans-Bold-44"/>
     <use xlink:href="#DejaVuSans-Bold-31" transform="translate(83.007812 0)"/>
    </g>
   </g>
   <g id="text_34">
    <!-- D3 -->
    <g style="fill: #0000ff" transform="translate(465.52971 128.371529) scale(0.11 -0.11)">
     <use xlink:href="#DejaVuSans-Bold-44"/>
     <use xlink:href="#DejaVuSans-Bold-33" transform="translate(83.007812 0)"/>
    </g>
   </g>
   <g id="text_35">
    <!-- D4 -->
    <g style="fill: #0000ff" transform="translate(324.045913 160.09894) scale(0.11 -0.11)">
     <use xlink:href="#DejaVuSans-Bold-44"/>
     <use xlink:href="#DejaVuSans-Bold-34" transform="translate(83.007812 0)"/>
    </g>
   </g>
   <g id="text_36">
    <!-- D5 -->
    <g style="fill: #0000ff" transform="translate(146.354626 149.189631) scale(0.11 -0.11)">
     <use xlink:href="#DejaVuSans-Bold-44"/>
     <use xlink:href="#DejaVuSans-Bold-35" transform="translate(83.007812 0)"/>
    </g>
   </g>
   <g id="text_37">
    <!-- D6 -->
    <g style="fill: #0000ff" transform="translate(450.347836 43.379717) scale(0.11 -0.11)">
     <use xlink:href="#DejaVuSans-Bold-44"/>
     <use xlink:href="#DejaVuSans-Bold-36" transform="translate(83.007812 0)"/>
    </g>
   </g>
   <g id="text_38">
    <!-- D7 -->
    <g style="fill: #0000ff" transform="translate(215.008415 56.745843) scale(0.11 -0.11)">
     <use xlink:href="#DejaVuSans-Bold-44"/>
     <use xlink:href="#DejaVuSans-Bold-37" transform="translate(83.007812 0)"/>
    </g>
   </g>
   <g id="text_39">
    <!-- D8 -->
    <g style="fill: #0000ff" transform="translate(33.070502 27.87175) scale(0.11 -0.11)">
     <use xlink:href="#DejaVuSans-Bold-44"/>
     <use xlink:href="#DejaVuSans-Bold-38" transform="translate(83.007812 0)"/>
    </g>
   </g>
   <g id="legend_1">
    <g id="patch_3">
     <path d="M 466.11 257.079304 
L 556.8 257.079304 
Q 559.2 257.079304 559.2 254.679304 
L 559.2 219.451804 
Q 559.2 217.051804 556.8 217.051804 
L 466.11 217.051804 
Q 463.71 217.051804 463.71 219.451804 
L 463.71 254.679304 
Q 463.71 257.079304 466.11 257.079304 
z
" style="fill: #ffffff; opacity: 0.95; stroke: #e5e9ee; stroke-width: 0.8; stroke-linejoin: miter"/>
    </g>
    <g id="line2d_40">
     <path d="M 468.51 226.769929 
L 480.51 226.769929 
L 492.51 226.769929 
" style="fill: none; stroke: #ffffff; stroke-width: 1.5; stroke-linecap: square"/>
     <g>
      <use xlink:href="#m492555d036" x="480.51" y="226.769929" style="fill: #ff0000"/>
     </g>
    </g>
    <g id="text_40">
     <!-- Source -->
     <g transform="translate(502.11 230.969929) scale(0.12 -0.12)">
      <defs>
       <path id="DejaVuSans-53" d="M 3425 4513 
L 3425 3897 
Q 3066 4069 2747 4153 
Q 2428 4238 2131 4238 
Q 1616 4238 1336 4038 
Q 1056 3838 1056 3469 
Q 1056 3159 1242 3001 
Q 1428 2844 1947 2747 
L 2328 2669 
Q 3034 2534 3370 2195 
Q 3706 1856 3706 1288 
Q 3706 609 3251 259 
Q 2797 -91 1919 -91 
Q 1588 -91 1214 -16 
Q 841 59 441 206 
L 441 856 
Q 825 641 1194 531 
Q 1563 422 1919 422 
Q 2459 422 2753 634 
Q 3047 847 3047 1241 
Q 3047 1584 2836 1778 
Q 2625 1972 2144 2069 
L 1759 2144 
Q 1053 2284 737 2584 
Q 422 2884 422 3419 
Q 422 4038 858 4394 
Q 1294 4750 2059 4750 
Q 2388 4750 2728 4690 
Q 3069 4631 3425 4513 
z
" transform="scale(0.015625)"/>
       <path id="DejaVuSans-6f" d="M 1959 3097 
Q 1497 3097 1228 2736 
Q 959 2375 959 1747 
Q 959 1119 1226 758 
Q 1494 397 1959 397 
Q 2419 397 2687 759 
Q 2956 1122 2956 1747 
Q 2956 2369 2687 2733 
Q 2419 3097 1959 3097 
z
M 1959 3584 
Q 2709 3584 3137 3096 
Q 3566 2609 3566 1747 
Q 3566 888 3137 398 
Q 2709 -91 1959 -91 
Q 1206 -91 779 398 
Q 353 888 353 1747 
Q 353 2609 779 3096 
Q 1206 3584 1959 3584 
z
" transform="scale(0.015625)"/>
       <path id="DejaVuSans-75" d="M 544 1381 
L 544 3500 
L 1119 3500 
L 1119 1403 
Q 1119 906 1312 657 
Q 1506 409 1894 409 
Q 2359 409 2629 706 
Q 2900 1003 2900 1516 
L 2900 3500 
L 3475 3500 
L 3475 0 
L 2900 0 
L 2900 538 
Q 2691 219 2414 64 
Q 2138 -91 1772 -91 
Q 1169 -91 856 284 
Q 544 659 544 1381 
z
M 1991 3584 
L 1991 3584 
z
" transform="scale(0.015625)"/>
       <path id="DejaVuSans-72" d="M 2631 2963 
Q 2534 3019 2420 3045 
Q 2306 3072 2169 3072 
Q 1681 3072 1420 2755 
Q 1159 2438 1159 1844 
L 1159 0 
L 581 0 
L 581 3500 
L 1159 3500 
L 1159 2956 
Q 1341 3275 1631 3429 
Q 1922 3584 2338 3584 
Q 2397 3584 2469 3576 
Q 2541 3569 2628 3553 
L 2631 2963 
z
" transform="scale(0.015625)"/>
       <path id="DejaVuSans-63" d="M 3122 3366 
L 3122 2828 
Q 2878 2963 2633 3030 
Q 2388 3097 2138 3097 
Q 1578 3097 1268 2742 
Q 959 2388 959 1747 
Q 959 1106 1268 751 
Q 1578 397 2138 397 
Q 2388 397 2633 464 
Q 2878 531 3122 666 
L 3122 134 
Q 2881 22 2623 -34 
Q 2366 -91 2075 -91 
Q 1284 -91 818 406 
Q 353 903 353 1747 
Q 353 2603 823 3093 
Q 1294 3584 2113 3584 
Q 2378 3584 2631 3529 
Q 2884 3475 3122 3366 
z
" transform="scale(0.015625)"/>
       <path id="DejaVuSans-65" d="M 3597 1894 
L 3597 1613 
L 953 1613 
Q 991 1019 1311 708 
Q 1631 397 2203 397 
Q 2534 397 2845 478 
Q 3156 559 3463 722 
L 3463 178 
Q 3153 47 2828 -22 
Q 2503 -91 2169 -91 
Q 1331 -91 842 396 
Q 353 884 353 1716 
Q 353 2575 817 3079 
Q 1281 3584 2069 3584 
Q 2775 3584 3186 3129 
Q 3597 2675 3597 1894 
z
M 3022 2063 
Q 3016 2534 2758 2815 
Q 2500 3097 2075 3097 
Q 1594 3097 1305 2825 
Q 1016 2553 972 2059 
L 3022 2063 
z
" transform="scale(0.015625)"/>
      </defs>
      <use xlink:href="#DejaVuSans-53"/>
      <use xlink:href="#DejaVuSans-6f" transform="translate(63.476562 0)"/>
      <use xlink:href="#DejaVuSans-75" transform="translate(124.658203 0)"/>
      <use xlink:href="#DejaVuSans-72" transform="translate(188.037109 0)"/>
      <use xlink:href="#DejaVuSans-63" transform="translate(226.900391 0)"/>
      <use xlink:href="#DejaVuSans-65" transform="translate(281.880859 0)"/>
     </g>
    </g>
    <g id="line2d_41">
     <path d="M 468.51 245.583679 
L 480.51 245.583679 
L 492.51 245.583679 
" style="fill: none; stroke: #ffffff; stroke-width: 1.5; stroke-linecap: square"/>
     <g>
      <use xlink:href="#md49e89ca09" x="480.51" y="245.583679" style="fill: #0000ff"/>
     </g>
    </g>
    <g id="text_41">
     <!-- Detector -->
     <g transform="translate(502.11 249.783679) scale(0.12 -0.12)">
      <defs>
       <path id="DejaVuSans-44" d="M 1259 4147 
L 1259 519 
L 2022 519 
Q 2988 519 3436 956 
Q 3884 1394 3884 2338 
Q 3884 3275 3436 3711 
Q 2988 4147 2022 4147 
L 1259 4147 
z
M 628 4666 
L 1925 4666 
Q 3281 4666 3915 4102 
Q 4550 3538 4550 2338 
Q 4550 1131 3912 565 
Q 3275 0 1925 0 
L 628 0 
L 628 4666 
z
" transform="scale(0.015625)"/>
       <path id="DejaVuSans-74" d="M 1172 4494 
L 1172 3500 
L 2356 3500 
L 2356 3053 
L 1172 3053 
L 1172 1153 
Q 1172 725 1289 603 
Q 1406 481 1766 481 
L 2356 481 
L 2356 0 
L 1766 0 
Q 1100 0 847 248 
Q 594 497 594 1153 
L 594 3053 
L 172 3053 
L 172 3500 
L 594 3500 
L 594 4494 
L 1172 4494 
z
" transform="scale(0.015625)"/>
      </defs>
      <use xlink:href="#DejaVuSans-44"/>
      <use xlink:href="#DejaVuSans-65" transform="translate(77.001953 0)"/>
      <use xlink:href="#DejaVuSans-74" transform="translate(138.525391 0)"/>
      <use xlink:href="#DejaVuSans-65" transform="translate(177.734375 0)"/>
      <use xlink:href="#DejaVuSans-63" transform="translate(239.257812 0)"/>
      <use xlink:href="#DejaVuSans-74" transform="translate(294.238281 0)"/>
      <use xlink:href="#DejaVuSans-6f" transform="translate(333.447266 0)"/>
      <use xlink:href="#DejaVuSans-72" transform="translate(394.628906 0)"/>
     </g>
    </g>
   </g>
  </g>
 </g>
 <defs>
  <clipPath id="p7dbd327e5b">
   <rect x="7.2" y="7.2" width="558" height="241.39557"/>
  </clipPath>
 </defs>
</svg>
